<svg width="83" height="32" fill="none" xmlns="http://www.w3.org/2000/svg">
  <path fill-rule="evenodd" clip-rule="evenodd"
    d="M0 15.531v11.531h24.771V4H0v11.531Zm29.042 0v11.531h24.771V4H29.041v11.531Zm29.041 0v11.531h24.771V4H58.083v11.531ZM14.807 7.817c.979.444 1.988 1.197 2.242 1.67.254.475.461 1.43.461 2.125 0 .694-.364 1.713-.81 2.263l-.81 1 1.548 1.34c1.307 1.13 1.548 1.608 1.548 3.079 0 1.25-.29 2.049-1.026 2.834-.565.6-1.714 1.283-2.553 1.516-.84.233-3.208.425-5.264.426l-3.737.003V6.99l3.31.009c2.32.006 3.843.251 5.09.818Zm28.763-.134c1.045.418 1.982 1.173 2.358 1.9.343.665.624 1.677.624 2.25 0 .572-.365 1.492-.81 2.042-.81 1-.81 1 .68 2.29 1.18 1.02 1.5 1.621 1.535 2.888.028 1-.281 2.041-.827 2.776-.48.647-1.526 1.406-2.326 1.686s-3.233.52-5.406.534l-3.95.024V6.99h3.194c1.952 0 3.87.27 4.928.693Zm32.237-.116c1.566.47 1.72.65 1.844 2.148.1 1.222-.007 1.577-.427 1.402-.31-.128-1.59-.551-2.846-.94-1.556-.484-2.896-.618-4.206-.421-1.325.198-2.407.732-3.482 1.717-1.464 1.342-1.56 1.588-1.56 3.997 0 2.26.151 2.725 1.257 3.88.692.721 1.94 1.501 2.776 1.734.836.232 2.096.418 2.8.414.705-.004 2.387-.463 3.738-1.018l2.455-1.01v1.592c0 1.318-.202 1.688-1.174 2.148-.646.306-2.667.65-4.492.765-2.484.156-3.79.027-5.204-.512-1.038-.397-2.562-1.468-3.387-2.38-.824-.913-1.715-2.46-1.978-3.44-.264-.98-.36-2.496-.211-3.37.148-.874.624-2.175 1.06-2.892.436-.717 1.434-1.781 2.217-2.366.783-.584 2.001-1.264 2.706-1.51.704-.246 2.434-.448 3.844-.449 1.409 0 3.33.23 4.27.511ZM9.48 12.007l.13 2.03 1.685-.057c1.182-.039 1.915-.34 2.456-1.008.424-.523.77-1.11.77-1.301 0-.192-.301-.651-.67-1.02-.411-.411-1.415-.672-2.586-.672H9.349l.13 2.029Zm29.042 0 .13 2.03 1.594-.048c.876-.027 1.886-.29 2.242-.587.357-.296.648-.956.648-1.468 0-.511-.23-1.16-.512-1.442-.282-.282-1.35-.513-2.372-.513h-1.86l.13 2.029ZM9.48 19.056l.128 2.242 2.45-.05c1.347-.026 2.74-.29 3.096-.585.356-.296.647-.983.647-1.529 0-.545-.427-1.29-.95-1.655-.57-.4-1.855-.666-3.225-.666H9.351l.13 2.243Zm29.041 0c.123 2.136.189 2.249 1.403 2.387.7.08 1.995-.072 2.878-.337 1.184-.354 1.68-.776 1.887-1.604.217-.864.06-1.305-.683-1.907-.672-.543-1.674-.782-3.29-.782h-2.324l.13 2.243Z"
    fill="#737373" />
</svg>
