<svg width="101" height="32" fill="none" xmlns="http://www.w3.org/2000/svg">
  <path
    d="M15.072 1C6.675 1 0 7.855 0 16.205c0 8.44 6.676 15.297 15.072 15.297 8.44 0 15.026-6.855 15.026-15.295C30.099 7.857 23.51 1 15.072 1Zm0 6.454c6.855 0 11.876 4.353 13.998 8.753-2.122 4.467-7.143 8.841-13.998 8.841-6.9 0-11.881-4.375-14.002-8.84 2.12-4.4 7.104-8.751 14.002-8.751v-.003Zm0 .692c-4.466 0-8.107 3.614-8.107 8.059a8.092 8.092 0 0 0 8.107 8.106c4.465 0 8.058-3.595 8.058-8.104a8.055 8.055 0 0 0-8.058-8.061ZM44.506 2.81c-7.883 0-13.376 5.983-13.376 13.261v.088c0 7.368 5.606 13.198 13.177 13.198 4.934 0 7.882-1.765 10.517-4.601L51.23 21.14c-2.01 1.83-3.822 3.016-6.747 3.016-4.398 0-7.457-3.689-7.457-8.086v-.066c0-4.399 3.126-7.995 7.457-7.995 2.568 0 4.578 1.094 6.566 2.904l3.595-4.155c-2.389-2.344-5.291-3.95-10.137-3.95ZM56.951 3.254v25.653h12.213c5.782 0 9.6-2.341 9.6-7.029v-.09c0-3.438-1.829-5.16-4.801-6.297 1.832-1.026 3.372-2.633 3.372-5.536V9.89c0-1.767-.581-3.195-1.765-4.378-1.472-1.45-3.772-2.257-6.698-2.257h-11.92Zm5.49 4.934h5.584c2.39 0 3.705.96 3.705 2.635v.09c0 1.898-1.585 2.702-4.085 2.702l-5.203.002V8.188Zm0 10.119h6.545c2.878 0 4.173 1.073 4.173 2.792v.087c0 1.898-1.517 2.768-3.995 2.768l-6.722.003v-5.65ZM89.833 2.876c-5.224 0-8.974 3.08-8.974 7.745v.069c0 5.093 3.347 6.523 8.506 7.84 4.287 1.115 5.179 1.829 5.179 3.258v.09c0 1.495-1.408 2.412-3.707 2.412-2.948 0-5.36-1.209-7.66-3.106L79.83 25.18c3.081 2.747 7.01 4.088 10.896 4.088v-.003c5.537 0 9.421-2.86 9.421-7.946v-.067c0-4.487-2.946-6.344-8.149-7.705-4.42-1.14-5.538-1.697-5.538-3.372v-.066c0-1.25 1.139-2.255 3.305-2.255 2.166 0 4.4.959 6.678 2.542l2.924-4.26c-2.59-2.077-5.781-3.261-9.533-3.261Z"
    fill="#737373" />
</svg>
