<svg width="68" height="32" fill="none" xmlns="http://www.w3.org/2000/svg">
  <path
    d="M5.155 15.807c0 5.795 4.715 10.51 10.51 10.51h9.817c.617 0 1.095-.586 1.095-1.09V5.966a2.21 2.21 0 0 1 2.206-2.207c.78 0 1.508.414 1.897 1.08a91573.874 91573.874 0 0 1 12.332 21.263.918.918 0 0 0 1.701-.476V5.968c0-1.217.99-2.207 2.206-2.207.78 0 1.508.414 1.897 1.08.05.084 3.02 5.208 6.164 10.634l6.16 10.63a.918.918 0 0 0 1.7-.476V.138h-3.87V15.31S51.96 3.243 51.734 2.855C50.709 1.105 48.768 0 46.703 0a5.861 5.861 0 0 0-5.86 5.86v9.45s-7.01-12.067-7.238-12.455C32.582 1.105 30.641 0 28.575 0a5.861 5.861 0 0 0-5.86 5.86V21.39c.003.565-.422 1.057-1.04 1.059h-5.968a6.64 6.64 0 0 1 0-13.282h4.998V5.297h-5.04c-5.795 0-10.51 4.715-10.51 10.51Z"
    fill="#737373" />
  <path
    d="M64.13.137v25.49c0 1.217-.989 2.207-2.206 2.207-.78 0-1.508-.414-1.897-1.08-.05-.084-3.02-5.209-6.163-10.634l-6.16-10.63a.918.918 0 0 0-1.7.475v19.662c-.001 1.217-.99 2.207-2.208 2.207-.78 0-1.507-.414-1.897-1.08L35.732 16.12 29.567 5.49a.917.917 0 0 0-1.7.475v19.26c0 1.269-1.115 2.381-2.385 2.381h-9.816c-6.507 0-11.8-5.293-11.8-11.8 0-6.506 5.293-11.8 11.8-11.8h5.04V.136H15.67C7.016.137 0 7.153 0 15.807c0 8.655 7.016 15.67 15.67 15.67h9.911c3.754.002 6.169-2.198 6.164-6.255v-8.938s7.06 12.153 7.238 12.456a5.86 5.86 0 0 0 10.89-3.006v-9.45s7.01 12.068 7.238 12.456c1.023 1.75 2.964 2.855 5.03 2.855A5.86 5.86 0 0 0 68 25.734V.136h-3.87Z"
    fill="#737373" />
  <path
    d="M3.865 15.807c0 6.507 5.294 11.8 11.8 11.8h9.817c1.27 0 2.384-1.112 2.384-2.38V5.966a.917.917 0 0 1 1.7-.475c.05.084 3.159 5.445 6.165 10.629L41.9 26.755a2.202 2.202 0 0 0 1.897 1.08 2.21 2.21 0 0 0 2.207-2.207V5.967a.917.917 0 0 1 1.7-.475l6.16 10.629 6.163 10.634a2.201 2.201 0 0 0 1.897 1.08c1.218 0 2.207-.99 2.207-2.207V.138h-1.29v25.49a.918.918 0 0 1-1.7.475l-6.16-10.629c-3.145-5.426-6.114-10.55-6.164-10.634a2.201 2.201 0 0 0-1.897-1.08 2.21 2.21 0 0 0-2.206 2.207v19.66a.918.918 0 0 1-1.701.476A344293.41 344293.41 0 0 1 30.68 4.84a2.201 2.201 0 0 0-1.897-1.08 2.21 2.21 0 0 0-2.207 2.207v19.26c0 .504-.478 1.09-1.094 1.09h-9.817c-5.795 0-10.51-4.715-10.51-10.51s4.715-10.51 10.51-10.51h5.04v-1.29h-5.04c-6.506 0-11.8 5.294-11.8 11.8Z"
    fill="#fff" />
</svg>
