<svg width="124" height="32" fill="none" xmlns="http://www.w3.org/2000/svg">
  <path fill-rule="evenodd" clip-rule="evenodd"
    d="M58.787 11.975c0 2.488-.249 10.2-.249 10.2 0 1.492.498 2.154 1.907 2.154v.663H54.89v-.663c1.409 0 2.155-.662 2.155-2.155l.498-12.602c-.415-.996-.83-1.327-1.907-1.41v-.58h4.228l4.478 11.774 4.561-11.774h3.814v.58c-1.078 0-1.658.498-1.658 1.658l.498 12.189c0 1.824.331 2.322 1.824 2.322v.662h-6.385v-.662c1.244 0 1.825-.415 1.741-2.322l-.331-10.033-3.067 8.457a31.599 31.599 0 0 0-1.162 3.649l-.994.083c-.249-.912-.912-2.57-.912-2.57l-3.484-9.62Zm-5.224 13.1c-.332-.083-.663-.083-.995-.083-.663 0-1.825.332-3.234.332-5.39 0-9.37-3.233-9.37-9.203 0-5.058 3.732-8.955 9.452-8.955 1.327 0 2.82.25 4.064.747.248-.25.33-.415.58-.663h.497c-.083.912-.414 3.897-.414 3.897h-.498c-.332-1.741-1.244-2.902-4.146-2.902-3.482 0-6.633 2.736-6.633 7.794 0 5.721 3.234 8.208 6.799 8.208 2.322 0 3.73-1.326 4.643-2.985l.58.25-1.326 3.564ZM37.89 10.816h-.58c-.083-1.576-.58-2.074-1.824-2.074h-2.405V21.76c0 2.155.415 2.57 1.825 2.57v.663h-6.219v-.663c1.41 0 1.825-.415 1.825-2.654V8.741h-2.405c-1.575 0-1.825.415-2.24 2.073h-.579l.415-3.731.414.083c.166.414.498.414 1.493.414h8.043c1.493 0 1.824 0 2.156-.497h.498l-.416 3.73v.001ZM20.314 25.406c-1.161 0-2.073-.166-2.736-.415-.663-.165-1.161-.414-1.41-.58-.331.331-.58.746-.58.746l-.498-.166.415-3.897.58.084c.332 1.824 1.575 3.15 4.146 3.15 1.99 0 3.316-1.658 3.316-3.482 0-1.492-.58-2.24-2.57-3.732l-1.742-1.16c-1.824-1.16-2.985-2.488-2.985-4.643 0-2.488 2.073-4.147 4.81-4.147 1.574 0 2.57.498 2.902.663l.58-.663.414.084-.415 3.565-.58-.083c0-1.658-.995-2.404-2.653-2.404-1.575 0-2.736.83-2.736 2.404 0 1.41 1.078 2.322 2.321 3.15l1.658 1.079c2.902 2.072 3.566 3.399 3.566 5.389 0 2.901-2.238 5.057-5.803 5.057v.001Zm-9.452-14.593H10.2c0-1.493-.663-2.073-1.99-2.073H4.48v6.55h2.404c1.243 0 1.493-.662 1.658-1.74h.58v4.643h-.58c-.165-1.244-.415-1.741-1.742-1.741H4.48v5.556c0 2.072.497 2.322 1.824 2.322v.662H0v-.662c1.575 0 1.824-.415 1.824-2.322V9.819c0-1.16-.498-1.658-1.824-1.658v-.58h8.623c1.492 0 1.824-.084 2.073-.581h.58l-.415 3.814h.001Zm89.465.995v9.95c0 2.155.496 2.57 1.823 2.57v.663h-9.783v-.663c.747 0 1.409-.25 1.409-.747 0-.332-.083-.912-.249-1.493l-.747-2.404H87.31c-.084.332-1.078 3.067-1.078 3.814 0 .663.747.83 1.243.83v.663h-4.56v-.663c.829 0 1.492-.084 2.072-1.824l4.23-13.516c-.25-.58-.581-.745-1.16-.83v-.58h3.73l4.476 14.18c.416 1.491.83 2.238 1.493 2.569.996-.331 1.245-.663 1.245-2.57V9.82c-.747-.994-.83-1.658-2.24-1.658v-.58h4.229l6.964 11.855V10.4c0-1.824-.413-2.239-1.824-2.239v-.58h9.286v.58c-.58 0-1.077.249-1.077.83 0 .414.166.828.331 1.326l2.654 5.722 2.571-5.555c.413-.746.498-1.16.498-1.576 0-.497-.334-.746-1.078-.746v-.58h4.394v.58c-1.078 0-1.743.995-2.239 2.154l-3.4 6.966v4.56c0 1.99.498 2.487 1.825 2.487v.663h-6.302v-.663c1.326 0 1.824-.496 1.824-2.487v-3.897l-3.649-7.711c-.662-1.492-.911-1.823-1.327-2.073-.828.331-1.077.912-1.077 2.239v12.769l.166 2.155-1.078.083-8.125-13.598h.001Zm-10.364-.83-2.323 7.547h4.81l-2.488-7.546ZM79.68 18.526h-1.243v3.565c0 1.824.496 2.239 1.907 2.239v.663h-6.385v-.663c1.327 0 1.825-.497 1.825-2.321V10.317c0-1.823-.498-2.155-1.825-2.155v-.58h4.809c4.643 0 7.379 1.409 7.379 5.223 0 3.98-3.316 5.721-6.467 5.721Zm-.83-9.784h-.413v8.54h.745c2.737 0 4.147-1.245 4.147-4.395 0-3.15-1.244-4.145-4.478-4.145ZM50.744 21.676c-3.15 0-5.306-2.24-5.306-5.472 0-3.068 2.24-5.472 5.306-5.472 2.986 0 5.224 2.322 5.224 5.472 0 3.067-2.322 5.472-5.224 5.472Zm0-9.95c-2.155 0-2.902 2.073-2.902 4.478 0 2.24.664 4.477 2.902 4.477 2.156 0 2.82-2.24 2.82-4.56 0-2.238-.83-4.395-2.82-4.395Zm-36.481 8.955v-.58c.83 0 .995-.248.995-.497 0-.333-.083-.581-.166-.83 0 0-.167-.664-.332-1.16h-3.234l-.331 1.078c-.083.248-.166.497-.166.828 0 .331.332.58.83.58v.581H8.624v-.58c.83 0 1.161-.248 1.492-1.16l2.488-7.463c-.083-.332-.332-.58-.83-.58v-.58h2.653l2.736 7.96c.415 1.408.83 1.823 1.492 1.823v.58h-4.393ZM13.1 12.638l-1.243 4.063h2.57l-1.326-4.063Z"
    fill="#737373" />
</svg>
