<svg width="82" height="32" fill="none" xmlns="http://www.w3.org/2000/svg">
  <path
    d="M49.928 11.88c-1.318 0-2.354.286-3.39.854L46.632 6 40.32 7.138v.57l.66.094c.846.19 1.13.664 1.317 1.803.19 2.277.094 14.42 0 16.412 1.696.38 3.485.665 5.276.665 4.993 0 8.008-3.132 8.008-8.064 0-3.89-2.45-6.736-5.653-6.736v-.001Zm-2.166 13.757c-.377 0-.848 0-1.13-.095-.095-1.328-.189-6.925-.095-11.858.566-.19.941-.285 1.413-.285 2.075 0 3.205 2.467 3.205 5.502 0 3.796-1.414 6.736-3.392 6.736ZM16.58 6.378H0v.854l.942.095c1.224.19 1.696.948 1.884 2.75.283 3.416.189 9.583 0 12.523-.189 1.803-.659 2.657-1.884 2.75L0 25.54v.76h10.645v-.76l-1.13-.19c-1.226-.094-1.697-.948-1.884-2.75a77.793 77.793 0 0 1-.19-5.692l2.262.095c1.413 0 2.072 1.139 2.354 2.75h.849V13.02h-.849c-.283 1.613-.941 2.75-2.354 2.75l-2.26.096c0-3.226.094-6.262.189-8.064h3.296c2.545 0 3.864 1.612 4.805 4.459l.942-.285-.094-5.598h-.001Zm5.37 5.313c4.71 0 7.065 3.226 7.065 7.495 0 4.079-2.638 7.495-7.348 7.495s-7.065-3.227-7.065-7.495c0-4.08 2.638-7.495 7.349-7.495h-.001Zm-.283.949c-2.073 0-2.638 2.846-2.638 6.546 0 3.604.942 6.545 2.826 6.545 2.166 0 2.731-2.846 2.731-6.545 0-3.605-.94-6.546-2.92-6.546h.001Zm35.138 6.64c0-3.889 2.449-7.589 7.253-7.589 3.955 0 5.84 2.942 5.84 6.83h-8.76c-.095 3.51 1.6 6.073 4.992 6.073 1.508 0 2.26-.379 3.204-1.044l.376.474c-.943 1.328-3.014 2.657-5.652 2.657-4.24-.001-7.253-3.036-7.253-7.4Zm4.332-1.802 4.428-.095c0-1.897-.283-4.743-1.883-4.743-1.601 0-2.45 2.656-2.544 4.838Zm19.974-5.028c-1.13-.475-2.638-.759-4.334-.759-3.485 0-5.653 2.087-5.653 4.554s1.6 3.51 3.864 4.27c2.355.852 3.014 1.517 3.014 2.655 0 1.139-.848 2.182-2.355 2.182-1.79 0-3.11-1.043-4.145-3.89l-.66.19.095 4.175c1.13.474 3.202.855 4.993.855 3.674 0 6.03-1.899 6.03-4.839 0-1.993-1.038-3.13-3.487-4.08-2.638-1.043-3.579-1.707-3.579-2.94 0-1.234.85-2.088 1.98-2.088 1.695 0 2.826 1.043 3.675 3.606l.659-.19-.096-3.7h-.001Zm-39.85-.379c-1.6-.948-4.427-.474-5.934 2.942l.093-3.321-6.31 1.233v.57l.66.095c.848.095 1.223.57 1.319 1.803.188 2.277.093 6.261 0 8.253-.095 1.138-.47 1.707-1.32 1.802l-.66.095v.759h8.761v-.759l-1.13-.095c-.942-.095-1.224-.665-1.32-1.802-.188-1.803-.188-5.408-.093-7.684.47-.665 2.543-1.233 4.427 0l1.508-3.89Z"
    fill="#737373" />
</svg>
