<svg width="142" height="32" fill="none" xmlns="http://www.w3.org/2000/svg">
  <path
    d="M18.359 24.268h5.186l2.78-15.914H21.14l-1.026 5.7h-4.496l1.025-5.7h-5.186l-2.78 15.914h5.186l1.045-5.955h4.496l-1.045 5.955ZM29.264 8.335l-1.578 8.854c-.138.69-.197 1.36-.197 1.992 0 4.693 4.102 5.403 6.567 5.403 5.166 0 7.395-1.716 8.203-6.35l1.736-9.919h-5.187l-1.479 8.322c-.473 2.603-.808 3.964-2.74 3.964-1.263 0-1.874-.67-1.874-2.051 0-.533.079-1.183.237-1.992l1.498-8.243h-5.186v.02ZM71.404 24.268h5.187l.73-4.101h2.444c4.516 0 7.02-2.446 7.02-6.902 0-3.136-2.169-4.93-5.974-4.93h-6.626l-2.78 15.933Zm8.085-8.026h-1.498l.69-3.746h1.4c1.144 0 1.755.572 1.755 1.617 0 1.321-.888 2.13-2.347 2.13ZM96.862 8c-5.64 0-9.011 3.648-9.011 9.78 0 4.26 2.681 6.824 7.177 6.824 5.64 0 9.012-3.648 9.012-9.781.02-4.28-2.662-6.823-7.178-6.823Zm-1.518 12.482c-1.34 0-2.13-.966-2.13-2.583 0-.611.06-1.144.178-1.755.394-2.09 1.065-4.003 3.175-4.003 1.34 0 2.13.966 2.13 2.583 0 .612-.06 1.144-.178 1.755-.395 2.07-1.065 4.003-3.175 4.003ZM122.083 24.268h5.186l2.051-11.654h3.904l.75-4.26h-13.272l-.749 4.26h4.141l-2.011 11.654ZM113.485 14.231c-1.636-.512-2.307-.73-2.307-1.498 0-.513.335-1.124 1.321-1.124.73 0 1.341.414 1.578 1.025l4.575-1.242C118.119 9.144 116.187 8 112.854 8c-6.27 0-6.763 4.2-6.763 5.482 0 2.603 1.38 4.2 4.377 5.029.789.216 1.696.453 1.696 1.32 0 .69-.513 1.125-1.4 1.125-.808 0-1.676-.474-1.972-1.302l-4.516 1.223c.493 2.366 2.722 3.707 6.212 3.707 2.662 0 7.119-.71 7.119-5.521.019-2.406-1.341-3.984-4.122-4.832ZM5.778 24.268l2.8-15.914H0v15.914h5.778ZM136.202 8.354l-2.78 15.914H142V8.354h-5.798ZM50.186 19.575h4.358l.71-4.003h-4.358l.493-2.958h6.093l.75-4.279h-11.28l-2.78 15.933h5.186l.828-4.693ZM63.773 19.575h4.378l.71-4.003h-4.358l.493-2.958h6.093l.75-4.279h-11.28l-2.78 15.933h5.185l.809-4.693Z"
    fill="#737373" />
</svg>
