<svg width="181" height="32" fill="none" xmlns="http://www.w3.org/2000/svg">
  <path
    d="M66.825 12.77v11.34h-4.157V12.77H58.48V9.14h12.54v3.63h-4.195Zm13.89 6.85h-6.632a1.77 1.77 0 0 0 1.904 1.803 5.853 5.853 0 0 0 2.911-.793l1.507 2.506a8.69 8.69 0 0 1-4.528 1.293c-3.398 0-5.241-2.405-5.241-5.852 0-3.878 2.186-5.875 5.132-5.875 2.945 0 5.002 2.041 5.002 6.215-.044.272-.044.51-.056.704h.001Zm-5.099-4.117c-.884 0-1.37.601-1.495 1.724h3.206c-.193-1.145-.578-1.723-1.711-1.723Zm12.257 8.88c-3.296 0-5.256-2.098-5.256-5.897 0-3.402 1.745-5.83 5.347-5.83A4.676 4.676 0 0 1 92.28 15.2l-2.651 2.038c-.532-.975-.895-1.452-1.733-1.452-.837 0-1.47.986-1.47 2.766s.533 2.704 1.587 2.704c.725 0 1.23-.409 1.948-1.463l2.436 1.906c-1.31 1.94-2.526 2.688-4.52 2.688l-.004-.003Zm13.142-.238V17.76c0-1.463-.488-1.849-1.28-1.849-.793 0-1.311.386-1.311 1.804v6.43h-3.851V10.071l3.85-1.543v5.115a4.348 4.348 0 0 1 2.833-.986c2.462 0 3.637 1.656 3.637 4.604v6.884h-3.878Zm13.095.239c-4.453 0-6.797-3.3-6.797-7.735 0-4.82 2.832-7.734 6.797-7.734 3.681 0 5.131 1.577 6.162 4.41l-3.761 1.471c-.544-1.39-1.053-2.268-2.424-2.268-1.734 0-2.482 1.736-2.482 4.117 0 2.382.726 4.106 2.527 4.106 1.302 0 1.858-.704 2.673-2.121l3.513 1.871a6.446 6.446 0 0 1-6.209 3.878l.001.005Zm15.701-7.247a2.411 2.411 0 0 0-1.79-.942c-.94 0-1.517.453-1.517 1.826v6.124h-3.852V12.93h3.852v.816a3.394 3.394 0 0 1 4.213-.578l-.906 3.97Zm9.165 7.009v-.749a4.259 4.259 0 0 1-2.81.987c-2.462 0-3.636-1.656-3.636-4.617v-6.839h3.863v6.35c0 1.453.498 1.838 1.291 1.838.793 0 1.28-.385 1.28-1.792v-6.396h3.874v11.25l-3.862-.033Zm13.095 0V17.76c0-1.463-.499-1.849-1.28-1.849-.782 0-1.311.386-1.311 1.804v6.43h-3.851V12.93h3.851v.749a4.349 4.349 0 0 1 2.833-.987c2.461 0 3.636 1.656 3.636 4.604v6.884l-3.878-.033Zm11.385.238c-3.296 0-5.268-2.098-5.268-5.897 0-3.403 1.756-5.83 5.347-5.83a4.714 4.714 0 0 1 4.327 2.54l-2.65 2.007c-.545-.975-.907-1.452-1.734-1.452s-1.484.987-1.484 2.767c0 1.78.533 2.703 1.586 2.703.725 0 1.246-.408 1.949-1.463l2.435 1.905c-1.302 1.973-2.526 2.722-4.509 2.722l.001-.003v.001Zm13.13-.238V17.76c0-1.463-.488-1.849-1.281-1.849-.792 0-1.302.386-1.302 1.804v6.43h-3.851V10.071l3.851-1.543v5.115a4.296 4.296 0 0 1 2.821-.986c2.47 0 3.637 1.656 3.637 4.604v6.884h-3.875ZM0 3v8.54h8.519v17.066h8.53V11.539h8.518V3H0Zm34.096 17.067V11.54h-8.53v17.067h25.578v-8.539H34.096Zm0-17.066h17.048v8.538H34.096V3.001Z"
    fill="#737373" />
</svg>
