<svg width="121" height="32" fill="none" xmlns="http://www.w3.org/2000/svg">
  <path
    d="M101.512 7.74v16.645h8.198c2.291 0 3.617-.362 4.582-1.207 1.206-1.085 1.808-3.015 1.808-7.116 0-4.102-.602-6.031-1.808-7.117-.965-.844-2.291-1.206-4.582-1.206h-8.198Zm11.213 8.322c0 3.618-.241 4.463-.965 4.945-.482.362-1.085.482-2.29.482h-4.582V10.513h4.582c1.205 0 1.808 0 2.29.483.724.603.965 1.447.965 5.066Zm7.595 12.002H96.268V4h24.052v24.064Zm-43.703-17.55V7.739h14.226v5.308h-3.015v-2.534h-5.787v3.981h4.582v2.654H82.04v4.463h5.909v-2.895h3.013v5.669H76.618V21.61h2.29V10.513h-2.29Zm-12.9 9.528c0 1.81.12 3.136.36 4.222h3.257c-.122-.844-.241-2.412-.241-4.463-.122-2.412-.845-2.774-2.533-3.136 1.929-.362 2.774-1.206 2.774-4.222 0-2.412-.363-3.377-1.086-3.98-.482-.482-1.325-.724-2.653-.724H53.468v16.646h3.376V17.87h4.703c.965 0 1.325.121 1.688.362s.482.604.482 1.81Zm-6.873-4.825v-4.583h5.426c.724 0 .965.12 1.084.241.241.241.483.603.483 2.05 0 1.448-.242 1.93-.483 2.172-.119.12-.36.24-1.084.24l-5.426-.12Zm15.312 12.847H48.044V4h24.052v24.064h.06Zm-30.38-6.453v2.774H30.32V21.61h4.099V10.513h-4.1V7.74h11.454v2.775h-4.1V21.61h4.101ZM22.423 7.739H19.29L17 20.887 14.346 8.704c-.12-.844-.482-.965-1.206-.965h-1.688c-.723 0-1.085.241-1.205.965L7.595 20.887 5.305 7.739H1.929l3.255 15.802c.12.723.362.844 1.206.844h2.29c.724 0 .965-.12 1.207-.845l2.532-11.458L14.95 23.54c.12.723.361.844 1.205.844h2.17c.724 0 1.085-.12 1.206-.845l2.894-15.8h-.002Zm1.688 20.325H0V4h24.052v24.064h.06Z"
    fill="#737373" />
</svg>
