<svg xmlns="http://www.w3.org/2000/svg" fill="none" viewBox="0 0 2880 1024"><path fill="white" fill-rule="evenodd" d="M1185.92 769.928h-1.28c.576 0 .96.576 1.536.704.064 0 .32-.064.384-.064l-.64-.64zm.256.704c-5.952.064-20.928 3.136-36.736 3.136-49.92 0-67.2-23.042-67.2-53.122v-200.32H1184c5.76 0 10.24-5.12 10.24-12.16v-108.8c0-5.76-5.12-10.88-10.24-10.88h-101.76v-135.04c0-5.12-3.2-8.32-8.96-8.32H935.04c-5.76 0-8.96 3.2-8.96 8.32v138.88s-69.76 17.28-74.24 17.92c-5.12 1.28-8.32 5.76-8.32 10.88v87.04c0 7.04 5.12 12.16 10.88 12.16h71.04v209.92c0 156.162 108.8 172.162 183.04 172.162 33.92 0 74.88-10.88 81.28-14.08 3.84-1.28 5.76-5.76 5.76-10.24v-96c0-6.336-4.352-10.56-9.344-11.456zM2702.72 629.766c0-115.84-46.72-131.2-96-126.08-38.4 2.56-69.12 21.76-69.12 21.76v225.28s31.36 21.762 78.08 23.042c65.92 1.92 87.04-21.762 87.04-144.002zm155.52-10.24c0 219.522-71.04 282.242-195.2 282.242-104.96 0-161.28-53.12-161.28-53.12s-2.56 29.44-5.76 33.28c-1.92 3.84-5.12 5.12-8.96 5.12h-94.72c-6.4 0-12.16-5.12-12.16-10.88l1.28-711.042c0-5.76 5.12-10.88 10.88-10.88h136.32c5.76 0 10.88 5.12 10.88 10.88v241.28s52.48-33.92 129.28-33.92l-.64-1.28c76.8 0 190.08 28.8 190.08 248.32zm-558.08-231.04H2165.76c-7.04 0-10.88 5.12-10.88 12.16v348.16s-35.2 24.962-83.2 24.962-62.08-21.762-62.08-69.762v-304c0-5.76-5.12-10.88-10.88-10.88h-136.96c-5.76 0-10.88 5.12-10.88 10.88v327.04c0 140.802 78.72 176.002 186.88 176.002 88.96 0 161.28-49.28 161.28-49.28s3.2 24.96 5.12 28.8c1.28 3.2 5.76 5.76 10.24 5.76h85.76c7.04 0 10.88-5.12 10.88-10.88l1.28-478.082c0-5.76-5.12-10.88-12.16-10.88zm-1516.8-.64H647.04c-5.76 0-10.88 5.76-10.88 12.8v469.762c0 12.8 8.32 17.28 19.2 17.28h122.88c12.8 0 16-5.76 16-17.28V398.726c0-5.76-5.12-10.88-10.88-10.88zm-67.2-216.32c-49.28 0-88.32 39.04-88.32 88.32 0 49.28 39.04 88.32 88.32 88.32 48 0 87.04-39.04 87.04-88.32 0-49.28-39.04-88.32-87.04-88.32zm1055.36-16h-135.04c-5.76 0-10.88 5.12-10.88 10.88v261.76h-211.84v-261.76c0-5.76-5.12-10.88-10.88-10.88h-136.32c-5.76 0-10.88 5.12-10.88 10.88v711.042c0 5.76 5.76 10.88 10.88 10.88h136.32c5.76 0 10.88-5.12 10.88-10.88V573.446h211.84l-1.28 304.002c0 5.76 5.12 10.88 10.88 10.88h136.32c5.76 0 10.88-5.12 10.88-10.88V166.406c0-5.76-5.12-10.88-10.88-10.88zM563.84 470.406v367.362c0 2.56-.64 7.04-3.84 8.32 0 0-80 56.96-211.84 56.96C188.8 903.048 0 853.128 0 524.166c0-328.96 165.12-396.8 326.4-396.16 139.52 0 195.84 31.36 204.8 37.12 2.56 3.2 3.84 5.76 3.84 8.96l-26.88 113.92c0 5.76-5.76 12.8-12.8 10.88-23.04-7.04-57.6-21.12-138.88-21.12-94.08 0-195.2 26.88-195.2 238.72s96 236.8 165.12 236.8c58.88 0 80-7.04 80-7.04v-147.2h-94.08c-7.04 0-12.16-5.12-12.16-10.88v-117.76c0-5.76 5.12-10.88 12.16-10.88h239.36c7.04 0 12.16 5.12 12.16 10.88z" clip-rule="evenodd"/></svg>