<?xml version="1.0" encoding="UTF-8" standalone="no"?>
<svg
   width="394"
   height="80"
   viewBox="0 0 394 80"
   fill="none"
   version="1.1"
   id="svg18"
   xmlns="http://www.w3.org/2000/svg"
   xmlns:svg="http://www.w3.org/2000/svg">
  <defs
     id="defs22" />
  <path
     d="m 261.919,0.0330722 h 68.628 V 12.7 H 303.323 V 79.339 H 289.71 V 12.7 h -27.791 z"
     fill="black"
     id="path2"
     style="fill:#ffffff;fill-opacity:1" />
  <path
     d="M 149.052,0.0330722 V 12.7 H 94.0421 V 33.0772 H 138.281 V 45.7441 H 94.0421 v 20.928 H 149.052 V 79.339 H 80.43 V 12.7 H 80.4243 V 0.0330722 Z"
     fill="black"
     id="path4"
     style="fill:#ffffff;fill-opacity:1" />
  <path
     d="M 183.32,0.0661486 H 165.506 L 229.312,79.3721 h 17.866 L 215.271,39.7464 247.127,0.126654 229.312,0.154184 206.352,28.6697 Z"
     fill="black"
     id="path6"
     style="fill:#ffffff;fill-opacity:1" />
  <path
     d="M 201.6,56.7148 192.679,45.6229 165.455,79.4326 H 183.32 Z"
     fill="black"
     id="path8"
     style="fill:#ffffff;fill-opacity:1" />
  <path
     fill-rule="evenodd"
     clip-rule="evenodd"
     d="M 80.907,79.339 17.0151,0 H 0 V 79.3059 H 13.6121 V 16.9516 L 63.8067,79.339 Z"
     fill="black"
     id="path10"
     style="fill:#ffffff;fill-opacity:1" />
  <path
     d="m 333.607,78.8546 c -0.997,0 -1.845,-0.3453 -2.555,-1.036 -0.71,-0.6907 -1.061,-1.5269 -1.052,-2.5175 -0.009,-0.9634 0.342,-1.7905 1.052,-2.4812 0.71,-0.6907 1.558,-1.0361 2.555,-1.0361 0.959,0 1.798,0.3454 2.508,1.0361 0.72,0.6907 1.079,1.5178 1.089,2.4812 -0.01,0.6543 -0.176,1.2541 -0.508,1.7903 -0.341,0.5454 -0.774,0.9726 -1.319,1.2816 -0.535,0.3181 -1.125,0.4816 -1.77,0.4816 z"
     fill="black"
     id="path12"
     style="fill:#ffffff;fill-opacity:1" />
  <path
     d="m 356.84,45.4453 h 6.032 v 23.2393 c -0.009,2.1358 -0.471,3.9626 -1.374,5.4986 -0.913,1.5359 -2.177,2.7082 -3.8,3.5353 -1.614,0.8179 -3.505,1.2361 -5.654,1.2361 -1.965,0 -3.726,-0.3545 -5.294,-1.0452 -1.568,-0.6907 -2.813,-1.7268 -3.726,-3.0901 -0.923,-1.3633 -1.375,-3.0628 -1.375,-5.0986 h 6.042 c 0.009,0.8907 0.212,1.6631 0.599,2.3084 0.387,0.6453 0.922,1.136 1.605,1.4814 0.691,0.3454 1.485,0.5181 2.379,0.5181 0.969,0 1.799,-0.2 2.472,-0.609 0.673,-0.3999 1.19,-0.9997 1.55,-1.7995 0.35,-0.7906 0.535,-1.7722 0.544,-2.9355 z"
     fill="black"
     id="path14"
     style="fill:#ffffff;fill-opacity:1" />
  <path
     d="m 387.691,54.5338 c -0.147,-1.4087 -0.793,-2.5084 -1.918,-3.29 -1.135,-0.7907 -2.601,-1.1815 -4.4,-1.1815 -1.263,0 -2.351,0.1909 -3.255,0.5635 -0.904,0.3817 -1.605,0.8906 -2.085,1.5359 -0.479,0.6453 -0.719,1.3815 -0.738,2.2086 0,0.6907 0.166,1.2905 0.489,1.7904 0.323,0.5089 0.756,0.9361 1.319,1.2815 0.553,0.3544 1.171,0.6452 1.845,0.8815 0.682,0.2363 1.365,0.4363 2.047,0.5999 l 3.145,0.7725 c 1.264,0.2908 2.491,0.6817 3.662,1.1815 1.171,0.4908 2.232,1.1179 3.163,1.8722 0.932,0.7544 1.67,1.6632 2.214,2.7266 0.544,1.0633 0.821,2.3084 0.821,3.7444 0,1.9358 -0.498,3.6354 -1.504,5.1077 -1.005,1.4632 -2.453,2.6084 -4.353,3.4355 -1.891,0.818 -4.178,1.236 -6.871,1.236 -2.601,0 -4.87,-0.3998 -6.779,-1.1996 -1.918,-0.7907 -3.413,-1.9541 -4.492,-3.481 -1.079,-1.5268 -1.66,-3.39 -1.743,-5.5803 h 5.977 c 0.083,1.1451 0.452,2.0995 1.079,2.872 0.636,0.7634 1.466,1.3269 2.481,1.7086 1.024,0.3726 2.167,0.5635 3.431,0.5635 1.319,0 2.481,-0.2 3.486,-0.5908 0.996,-0.3908 1.78,-0.936 2.343,-1.6449 0.572,-0.6999 0.858,-1.5269 0.867,-2.4721 -0.009,-0.8634 -0.268,-1.5815 -0.766,-2.145 -0.507,-0.5634 -1.208,-1.036 -2.103,-1.4177 -0.903,-0.3817 -1.955,-0.7271 -3.154,-1.027 l -3.818,-0.9634 c -2.758,-0.6998 -4.944,-1.7631 -6.54,-3.19 -1.604,-1.4269 -2.398,-3.3173 -2.398,-5.6894 0,-1.9449 0.535,-3.6535 1.615,-5.1168 1.069,-1.4632 2.536,-2.5993 4.39,-3.4082 C 377.011,45.4 379.114,45 381.456,45 c 2.38,0 4.464,0.4 6.263,1.2179 1.798,0.8089 3.21,1.9359 4.233,3.3718 1.024,1.436 1.559,3.081 1.587,4.9441 z"
     fill="black"
     id="path16"
     style="fill:#ffffff;fill-opacity:1" />
</svg>
